<svg width="164" height="164" viewBox="0 0 164 164" fill="none" xmlns="http://www.w3.org/2000/svg">
<path fill-rule="evenodd" clip-rule="evenodd" d="M144.4 4.19996H19C10.6053 4.19996 3.8 11.0052 3.8 19.4V144.8C3.8 153.195 10.6053 160 19 160H144.4C152.795 160 159.6 153.195 159.6 144.8V19.4C159.6 11.0052 152.795 4.19996 144.4 4.19996ZM19 0.399963C8.50659 0.399963 0 8.90655 0 19.4V144.8C0 155.293 8.50659 163.8 19 163.8H144.4C154.893 163.8 163.4 155.293 163.4 144.8V19.4C163.4 8.90655 154.893 0.399963 144.4 0.399963H19Z" fill="#03EFB1"/>
<path fill-rule="evenodd" clip-rule="evenodd" d="M89.0972 70.9302C91.7265 69.5373 95.0721 67.4868 98.4216 64.6775C99.1279 66.2357 99.2052 67.5955 98.8414 68.6935C98.5835 69.4673 98.0976 70.1403 97.4587 70.6757C96.7667 71.2544 95.9026 71.6757 94.9474 71.9034C93.135 72.3372 91.0188 72.0839 89.0972 70.9302ZM89.553 85.2024L93.0336 87.3384C85.927 91.5702 83.9951 99.428 81.7001 107.082C79.4055 99.428 77.4733 91.5702 70.3671 87.3384L73.8475 85.2024C74.1842 85.0672 74.472 84.8223 74.6696 84.5027C74.8673 84.1831 74.9646 83.8052 74.9477 83.4232C74.6289 76.2554 76.4505 73.0857 78.9076 71.0955C79.7889 70.3826 80.7509 70.0246 81.7001 70.0246C82.6494 70.0246 83.6114 70.3826 84.493 71.0955C86.9501 73.0857 88.7717 76.2554 88.4529 83.4232C88.436 83.8052 88.5333 84.1831 88.7309 84.5027C88.9286 84.8223 89.2164 85.0672 89.553 85.2024ZM81.7001 38.4C85.7233 38.5147 89.7565 39.3445 93.2567 40.9588C95.6806 42.0781 97.9423 43.5565 99.9902 45.3245C100.915 46.1227 101.677 46.8937 102.516 47.7813C104.778 47.8644 108.085 45.1939 109.62 42.6951C106.978 51.8972 94.9222 62.764 86.576 66.9221C86.5725 66.9206 86.5702 66.9185 86.5676 66.9167C85.0698 65.7015 83.3851 65.0939 81.7001 65.0939C80.0152 65.0939 78.3308 65.7015 76.833 66.9167C76.8304 66.9182 76.8281 66.9209 76.8246 66.9221C68.4781 62.764 56.4227 51.8972 53.7808 42.6951C55.3156 45.1939 58.6222 47.8644 60.8848 47.7813C61.724 46.894 62.4855 46.1227 63.4101 45.3245C65.458 43.5565 67.7197 42.0781 70.1436 40.9588C73.6441 39.3445 77.6773 38.5147 81.7001 38.4ZM74.3031 70.9302C71.6741 69.5373 68.3283 67.4868 64.979 64.6775C64.2727 66.2357 64.1954 67.5955 64.559 68.6935C64.8171 69.4673 65.303 70.1403 65.9416 70.6757C66.6338 71.2544 67.498 71.6757 68.4532 71.9034C70.2656 72.3372 72.3815 72.0839 74.3031 70.9302Z" fill="#03EFB1"/>
<path fill-rule="evenodd" clip-rule="evenodd" d="M102.09 61.2349C103.934 59.2578 105.559 57.0695 106.865 55.1167L107.529 56.4436C109.665 60.9844 110.775 65.5069 110.775 70.5965L110.77 78.6729L110.81 82.8596C110.965 93.1381 113.058 103.537 117.8 113.054L107.879 104.555L100.859 116.657L93.4846 109.281L81.7 129.6L69.9153 109.282L62.5409 116.658L55.5211 104.555L45.6 113.054C50.3417 103.538 52.4349 93.1384 52.5899 82.8599L52.63 78.6732L52.6254 70.5968C52.6254 65.5069 53.7351 60.9844 55.8718 56.4439L56.5351 55.117C57.8416 57.0698 59.4661 59.2578 61.3103 61.2352L60.7344 62.5061C59.6156 64.9745 59.2452 67.7345 60.1167 70.3594C60.6786 72.05 61.704 73.4999 63.0259 74.6067C64.3095 75.6815 65.8286 76.406 67.419 76.7865C68.455 77.0343 69.5105 77.1363 70.5591 77.1016C70.3144 78.5752 70.2075 80.1036 70.2007 81.6609L60.8422 87.4037L68.0639 91.7046C68.6411 92.0485 69.1906 92.4424 69.7067 92.8824C75.6606 98.5619 79.2403 115.364 81.7002 123.571C84.1605 115.364 87.7398 98.5619 93.694 92.8824C94.2101 92.4423 94.7596 92.0484 95.3369 91.7046L102.559 87.4037L93.1998 81.6609C93.1929 80.1036 93.0861 78.5752 92.8414 77.1016C93.89 77.1363 94.9455 77.0343 95.9815 76.7865C97.5719 76.406 99.0913 75.6815 100.375 74.6067C101.696 73.4999 102.722 72.05 103.283 70.3594C104.155 67.7345 103.785 64.9748 102.666 62.5061L102.09 61.2349Z" fill="#03EFB1"/>
</svg>
