<svg width="164" height="164" viewBox="0 0 164 164" fill="none" xmlns="http://www.w3.org/2000/svg">
<path fill-rule="evenodd" clip-rule="evenodd" d="M144.4 4.40004H19C10.6053 4.40004 3.8 11.2053 3.8 19.6V145C3.8 153.395 10.6053 160.2 19 160.2H144.4C152.795 160.2 159.6 153.395 159.6 145V19.6C159.6 11.2053 152.795 4.40004 144.4 4.40004ZM19 0.600037C8.50659 0.600037 0 9.10663 0 19.6V145C0 155.493 8.50659 164 19 164H144.4C154.893 164 163.4 155.493 163.4 145V19.6C163.4 9.10663 154.893 0.600037 144.4 0.600037H19Z" fill="#03EFB1"/>
<path fill-rule="evenodd" clip-rule="evenodd" d="M72.4495 47.1272C67.5038 49.7215 63.4575 51.9168 63.4583 52.0061C63.4605 52.2366 75.3282 58.2888 75.7494 58.274C75.941 58.2675 77.331 57.6232 78.8381 56.8424L81.5787 55.4229L87.5648 58.5217L92.4664 56.3039C99.852 52.9619 100.619 52.5957 100.499 52.4726C100.339 52.3094 97.6903 50.8763 90.5031 47.0661C87.0296 45.2246 83.6584 43.419 83.0111 43.0537C82.364 42.6883 81.7462 42.3944 81.6383 42.4001C81.5304 42.4058 77.3953 44.533 72.4495 47.1272ZM50.7577 58.4384L45.6092 61.1163V72.8691C45.6092 79.3332 45.6768 84.6218 45.7598 84.6218C45.8424 84.6218 48.3754 83.5161 51.3886 82.1647L56.8671 79.7076V67.3194L59.5442 68.7881C61.6072 69.9189 63.6714 71.0473 65.7369 72.1735L69.2523 74.0901L70.8165 73.3778C71.7976 72.9304 72.7767 72.4786 73.7537 72.0225C74.5088 71.6684 76.3622 70.8278 77.8724 70.1541C79.3826 69.4801 80.7805 68.8023 80.9787 68.6478C81.2421 68.4426 78.0312 66.6559 69.1026 62.0389C62.3724 58.5587 56.6499 55.7222 56.386 55.7358C56.1221 55.7494 53.5894 56.9654 50.7577 58.4384ZM101.427 59.1904C97.9203 60.7844 95.049 62.1523 95.0458 62.2303C95.0427 62.3082 96.9538 63.4525 99.2929 64.7727C101.632 66.0933 103.546 67.2443 103.546 67.331C103.546 67.4175 101.476 68.4273 98.9465 69.5755C96.4167 70.7235 90.0226 73.6312 84.737 76.0373L67.0265 84.0986C62.5715 86.1266 58.5557 87.9545 58.1027 88.1611C49.003 92.3092 46.5019 93.4603 46.1584 93.6578C45.813 93.8568 45.7348 95.0124 45.6733 100.813L45.6 107.73L54.8078 112.455L61.1917 109.554C64.703 107.958 67.5757 106.569 67.5757 106.467C67.5757 106.365 66.9268 105.939 66.1342 105.52C65.3411 105.102 63.7041 104.175 62.4959 103.46C61.2878 102.746 60.0832 102.09 59.8188 102.003C59.5544 101.916 59.3419 101.765 59.3462 101.666C59.3506 101.567 62.1618 100.222 65.5929 98.6775C72.2573 95.6771 77.3573 93.3645 88.3064 88.3785C93.2025 86.1494 98.0992 83.9217 102.996 81.6953C107.301 79.7391 112.305 77.4543 114.117 76.6181L117.412 75.0978L117.559 61.1047L112.889 58.6912C110.321 57.364 108.126 56.2812 108.011 56.2852C107.896 56.2888 104.933 57.596 101.427 59.1904ZM116.161 84.4316C115.473 84.7701 114.114 85.4038 113.141 85.8397C112.168 86.2757 110.321 87.1147 109.037 87.7045L106.703 88.7764L106.65 94.9189C106.621 98.2971 106.497 101.046 106.376 101.028C106.099 100.987 101.725 98.7279 97.3278 96.3553C94.1542 94.6431 93.9548 94.575 93.2091 94.9469C92.778 95.162 90.2011 96.3258 87.4828 97.5335C84.7643 98.741 82.4516 99.8079 82.3429 99.9045C82.2344 100.001 87.7054 102.987 94.501 106.54L106.856 113.001L112.134 110.252C115.037 108.74 117.505 107.361 117.619 107.187C117.875 106.797 117.853 83.7628 117.596 83.7939C117.495 83.8061 116.849 84.0932 116.161 84.4316ZM86.9336 111.468C86.0181 111.865 85.1028 112.261 84.1878 112.659C81.4247 113.863 81.9662 113.903 78.6789 112.255C76.4894 111.157 75.5456 110.819 75.136 110.983C74.8287 111.106 72.1842 112.304 69.2589 113.645C66.3337 114.986 63.8389 116.083 63.7148 116.083C62.4875 116.083 64.5278 117.311 72.4012 121.31L81.6348 126L85.5198 124.069C87.6566 123.006 91.9663 120.879 95.0974 119.342C98.2281 117.804 100.751 116.505 100.704 116.456C100.656 116.408 98.0329 115.051 94.8739 113.442L89.1302 110.517L86.9336 111.468Z" fill="#03EFB1"/>
</svg>
