<svg width="164" height="164" viewBox="0 0 164 164" fill="none" xmlns="http://www.w3.org/2000/svg">
<path d="M111.676 53.9369C102.151 57.9567 61.3105 75.1947 50.0262 79.8929C42.4584 82.9022 46.8887 85.7238 46.8887 85.7238C46.8887 85.7238 53.3487 87.9806 58.8867 89.6734C64.424 91.3661 67.3773 89.4856 67.3773 89.4856L93.4031 71.6174C102.632 65.2225 100.417 70.4886 98.2019 72.7462C93.4032 77.6368 85.4661 85.3475 78.821 91.5547C75.8678 94.1877 77.344 96.4445 78.6368 97.5733C83.4356 101.711 96.5414 110.175 97.2792 110.739C101.178 113.552 108.848 117.602 110.015 109.047L114.629 79.5174C116.107 69.5491 117.583 60.3326 117.767 57.6996C118.321 51.3039 111.676 53.9369 111.676 53.9369Z" fill="#03EFB1"/>
<path fill-rule="evenodd" clip-rule="evenodd" d="M144.4 4.00001H19C10.6053 4.00001 3.8 10.8053 3.8 19.2V144.6C3.8 152.995 10.6053 159.8 19 159.8H144.4C152.795 159.8 159.6 152.995 159.6 144.6V19.2C159.6 10.8053 152.795 4.00001 144.4 4.00001ZM19 0.200012C8.50659 0.200012 0 8.7066 0 19.2V144.6C0 155.093 8.50659 163.6 19 163.6H144.4C154.893 163.6 163.4 155.093 163.4 144.6V19.2C163.4 8.7066 154.893 0.200012 144.4 0.200012H19Z" fill="#03EFB1"/>
</svg>
