<svg width="164" height="164" viewBox="0 0 164 164" fill="none" xmlns="http://www.w3.org/2000/svg">
<mask id="path-1-inside-1_73_115" fill="white">
<path fill-rule="evenodd" clip-rule="evenodd" d="M144.4 3.8H19C10.6053 3.8 3.8 10.6053 3.8 19V144.4C3.8 152.795 10.6053 159.6 19 159.6H144.4C152.795 159.6 159.6 152.795 159.6 144.4V19C159.6 10.6053 152.795 3.8 144.4 3.8ZM19 0C8.50659 0 0 8.50659 0 19V144.4C0 154.893 8.50659 163.4 19 163.4H144.4C154.893 163.4 163.4 154.893 163.4 144.4V19C163.4 8.50659 154.893 0 144.4 0H19Z"/>
<path d="M88.576 76.1753L115.458 45.6H109.09L85.7385 72.1427L67.1012 45.6H45.6L73.7894 85.7411L45.6 117.8H51.968L76.6124 89.7642L96.2989 117.8H117.8M54.2664 50.2987H64.0495L109.085 113.332H99.3"/>
</mask>
<path fill-rule="evenodd" clip-rule="evenodd" d="M144.4 3.8H19C10.6053 3.8 3.8 10.6053 3.8 19V144.4C3.8 152.795 10.6053 159.6 19 159.6H144.4C152.795 159.6 159.6 152.795 159.6 144.4V19C159.6 10.6053 152.795 3.8 144.4 3.8ZM19 0C8.50659 0 0 8.50659 0 19V144.4C0 154.893 8.50659 163.4 19 163.4H144.4C154.893 163.4 163.4 154.893 163.4 144.4V19C163.4 8.50659 154.893 0 144.4 0H19Z" fill="#03EFB1"/>
<path d="M88.576 76.1753L115.458 45.6H109.09L85.7385 72.1427L67.1012 45.6H45.6L73.7894 85.7411L45.6 117.8H51.968L76.6124 89.7642L96.2989 117.8H117.8M54.2664 50.2987H64.0495L109.085 113.332H99.3" fill="#03EFB1"/>
<path d="M115.458 45.6L116.209 46.2603L117.669 44.6H115.458V45.6ZM109.09 45.6V44.6H108.638L108.34 44.9395L109.09 45.6ZM85.7385 72.1427L84.9201 72.7173L85.6501 73.757L86.4892 72.8032L85.7385 72.1427ZM67.1012 45.6L67.9196 45.0254L67.6209 44.6H67.1012V45.6ZM45.6 45.6V44.6H43.6757L44.7816 46.1747L45.6 45.6ZM73.7894 85.7411L74.5403 86.4014L75.06 85.8104L74.6077 85.1664L73.7894 85.7411ZM45.6 117.8L44.849 117.14L43.389 118.8H45.6V117.8ZM51.968 117.8V118.8H52.4204L52.7191 118.46L51.968 117.8ZM76.6124 89.7642L77.4308 89.1895L76.7004 88.1494L75.8613 89.104L76.6124 89.7642ZM96.2989 117.8L95.4805 118.375L95.7791 118.8H96.2989V117.8ZM64.0495 50.2987L64.8632 49.7174L64.564 49.2987H64.0495V50.2987ZM109.085 113.332V114.332H111.029L109.899 112.751L109.085 113.332ZM19 4.8H144.4V2.8H19V4.8ZM4.8 19C4.8 11.1576 11.1576 4.8 19 4.8V2.8C10.053 2.8 2.8 10.053 2.8 19H4.8ZM4.8 144.4V19H2.8V144.4H4.8ZM19 158.6C11.1576 158.6 4.8 152.242 4.8 144.4H2.8C2.8 153.347 10.053 160.6 19 160.6V158.6ZM144.4 158.6H19V160.6H144.4V158.6ZM158.6 144.4C158.6 152.242 152.242 158.6 144.4 158.6V160.6C153.347 160.6 160.6 153.347 160.6 144.4H158.6ZM158.6 19V144.4H160.6V19H158.6ZM144.4 4.8C152.242 4.8 158.6 11.1576 158.6 19H160.6C160.6 10.053 153.347 2.8 144.4 2.8V4.8ZM1 19C1 9.05887 9.05887 1 19 1V-1C7.95431 -1 -1 7.95431 -1 19H1ZM1 144.4V19H-1V144.4H1ZM19 162.4C9.05887 162.4 1 154.341 1 144.4H-1C-1 155.446 7.95431 164.4 19 164.4V162.4ZM144.4 162.4H19V164.4H144.4V162.4ZM162.4 144.4C162.4 154.341 154.341 162.4 144.4 162.4V164.4C155.446 164.4 164.4 155.446 164.4 144.4H162.4ZM162.4 19V144.4H164.4V19H162.4ZM144.4 1C154.341 1 162.4 9.05887 162.4 19H164.4C164.4 7.95431 155.446 -1 144.4 -1V1ZM19 1H144.4V-1H19V1ZM89.327 76.8356L116.209 46.2603L114.707 44.9397L87.825 75.515L89.327 76.8356ZM115.458 44.6H109.09V46.6H115.458V44.6ZM108.34 44.9395L84.9877 71.4821L86.4892 72.8032L109.841 46.2605L108.34 44.9395ZM86.5569 71.568L67.9196 45.0254L66.2828 46.1747L84.9201 72.7173L86.5569 71.568ZM67.1012 44.6H45.6V46.6H67.1012V44.6ZM44.7816 46.1747L72.971 86.3158L74.6077 85.1664L46.4183 45.0253L44.7816 46.1747ZM73.0384 85.0808L44.849 117.14L46.3509 118.46L74.5403 86.4014L73.0384 85.0808ZM45.6 118.8H51.968V116.8H45.6V118.8ZM52.7191 118.46L77.3635 90.4244L75.8613 89.104L51.2169 117.14L52.7191 118.46ZM75.794 90.3388L95.4805 118.375L97.1172 117.225L77.4308 89.1895L75.794 90.3388ZM96.2989 118.8H117.8V116.8H96.2989V118.8ZM54.2664 51.2987H64.0495V49.2987H54.2664V51.2987ZM63.2358 50.8801L108.272 113.914L109.899 112.751L64.8632 49.7174L63.2358 50.8801ZM109.085 112.332H99.3V114.332H109.085V112.332Z" fill="#03EFB1" mask="url(#path-1-inside-1_73_115)"/>
</svg>
